<?xml version="1.0" encoding="UTF-8" standalone="no"?><!DOCTYPE svg PUBLIC "-//W3C//DTD SVG 1.1//EN" "http://www.w3.org/Graphics/SVG/1.1/DTD/svg11.dtd"><svg width="100%" height="100%" viewBox="0 0 27 10" version="1.1" xmlns="http://www.w3.org/2000/svg" xmlns:xlink="http://www.w3.org/1999/xlink" xml:space="preserve" style="fill-rule:evenodd;clip-rule:evenodd;stroke-linejoin:round;stroke-miterlimit:1.41421;"><path d="M26.037,2.315c0,-0.857 -0.696,-1.553 -1.552,-1.553l-22.932,0c-0.857,0 -1.553,0.696 -1.553,1.553l0,5.192c0,0.857 0.696,1.553 1.553,1.553l22.932,0c0.856,0 1.552,-0.696 1.552,-1.553l0,-5.192Z" style="fill:#d22d39;"/><path d="M26.037,1.553c0,-0.857 -0.696,-1.553 -1.552,-1.553l-22.932,0c-0.857,0 -1.553,0.696 -1.553,1.553l0,5.192c0,0.857 0.696,1.552 1.553,1.552l22.932,0c0.856,0 1.552,-0.695 1.552,-1.552l0,-5.192Z" style="fill:#e84f59;"/></svg>