<?xml version="1.0" encoding="UTF-8" standalone="no"?>
<!DOCTYPE svg PUBLIC "-//W3C//DTD SVG 1.1//EN" "http://www.w3.org/Graphics/SVG/1.1/DTD/svg11.dtd">
<svg width="100%" height="100%" viewBox="0 0 80 20" version="1.1" xmlns="http://www.w3.org/2000/svg" xmlns:xlink="http://www.w3.org/1999/xlink" xml:space="preserve" style="fill-rule:evenodd;clip-rule:evenodd;stroke-linejoin:round;stroke-miterlimit:1.41421;">
    <g transform="matrix(1,0,0,1,-116.637,-85.3559)">
        <g transform="matrix(1,0,0,1,86.3793,46.0622)">
            <g id="Logo" transform="matrix(1,0,0,1,-144.264,-43.2192)">
                <g transform="matrix(1,0,0,1,-2.06162,2.3365)">
                    <path d="M187.098,81.422C187.086,88.363 191.596,96.174 197.613,99.635C191.608,96.154 182.588,96.154 176.583,99.635C182.6,96.174 187.11,88.363 187.098,81.422Z" style="fill:rgb(40,63,96);"/>
                </g>
                <g transform="matrix(-0.651311,0.758811,-0.758811,-0.651311,380.828,13.4132)">
                    <path d="M187.098,81.422C187.086,88.363 191.596,96.174 197.613,99.635C191.608,96.154 182.588,96.154 176.583,99.635C182.6,96.174 187.11,88.363 187.098,81.422Z" style="fill:rgb(100,117,141);"/>
                </g>
                <g transform="matrix(1,0,0,1,-6.73226,13.3116)">
                    <text x="202.379px" y="86.937px" style="font-family:'Raleway-Bold', 'Raleway', sans-serif;font-weight:700;font-size:20.8px;fill:rgb(155,169,182);">LOGO</text>
                </g>
            </g>
        </g>
    </g>
</svg>
