<?xml version="1.0" encoding="UTF-8" standalone="no"?><!DOCTYPE svg PUBLIC "-//W3C//DTD SVG 1.1//EN" "http://www.w3.org/Graphics/SVG/1.1/DTD/svg11.dtd"><svg width="100%" height="100%" viewBox="0 0 17 8" version="1.1" xmlns="http://www.w3.org/2000/svg" xmlns:xlink="http://www.w3.org/1999/xlink" xml:space="preserve" style="fill-rule:evenodd;clip-rule:evenodd;stroke-linejoin:round;stroke-miterlimit:1.5;"><g id="Logo"><path d="M3.656,0.408c1.793,0 3.248,1.53 3.248,3.415c0,1.884 -1.455,3.414 -3.248,3.414c-1.792,0 -3.248,-1.53 -3.248,-3.414c0,-1.885 1.456,-3.415 3.248,-3.415Zm0,1.707c0.897,0 1.624,0.765 1.624,1.708c0,0.942 -0.727,1.707 -1.624,1.707c-0.896,0 -1.624,-0.765 -1.624,-1.707c0,-0.943 0.728,-1.708 1.624,-1.708Z" style="fill:none;stroke:#e84f59;stroke-width:0.82px;"/><g transform="matrix(0.172657,0,0,0.181502,-25.6795,-12.8963)"><text x="168.536px" y="98.782px" style="font-family:'TwCenMT-Bold', 'Tw Cen MT', sans-serif;font-weight:700;font-size:20.8px;fill:none;">F<tspan x="177.047px " y="98.782px ">A</tspan></text><text x="191.357px" y="98.782px" style="font-family:'CarroisGothicSC-Regular', 'Carrois Gothic SC', sans-serif;font-size:20.8px;fill:none;">SHION</text><text x="168.536px" y="98.782px" style="font-family:'TwCenMT-Bold', 'Tw Cen MT', sans-serif;font-weight:700;font-size:20.8px;fill:#fefffe;">F<tspan x="177.047px " y="98.782px ">A</tspan></text><text x="191.357px" y="98.782px" style="font-family:'CarroisGothicSC-Regular', 'Carrois Gothic SC', sans-serif;font-size:20.8px;fill:#ecf8f8;">SHION</text></g></g></svg>